<svg width="12" height="14" viewBox="0 0 12 14" fill="none" xmlns="http://www.w3.org/2000/svg">
  <path fill-rule="evenodd" clip-rule="evenodd" d="M8.50753 0.48823L7.76174 1.22624C8.62226 1.84504 9.17873 2.8442 9.17873 3.97393H2.29457C2.29457 2.8442 2.85104 1.85072 3.70009 1.23192L2.94857 0.48823C2.83383 0.374689 2.83383 0.198702 2.94857 0.0851612C3.06331 -0.0283871 3.24115 -0.0283871 3.35588 0.0851612L4.21067 0.925356C4.66961 0.698275 5.18592 0.567705 5.73665 0.567705C6.28165 0.567705 6.79796 0.698275 7.25117 0.925356L8.10021 0.0851612C8.21495 -0.0283871 8.39279 -0.0283871 8.50753 0.0851612C8.62226 0.198702 8.62226 0.374689 8.50753 0.48823ZM0 5.39306C0 4.92187 0.384366 4.54151 0.86052 4.54151C1.33667 4.54151 1.72104 4.92187 1.72104 5.39306V9.36699C1.72104 9.83818 1.33667 10.2185 0.86052 10.2185C0.384366 10.2185 0 9.83818 0 9.36699V5.39306ZM2.86825 10.7862C2.55273 10.7862 2.29457 10.5308 2.29457 10.2185V4.54151H9.17873V10.2185C9.17873 10.5308 8.92058 10.7862 8.60505 10.7862H8.03137V12.7732C8.03137 13.2444 7.64701 13.6248 7.17085 13.6248C6.6947 13.6248 6.31033 13.2444 6.31033 12.7732V10.7862H5.16297V12.7732C5.16297 13.2444 4.77861 13.6248 4.30245 13.6248C3.8263 13.6248 3.44193 13.2444 3.44193 12.7732V10.7862H2.86825ZM10.6131 4.54151C10.1369 4.54151 9.75254 4.92187 9.75254 5.39306V9.36699C9.75254 9.83818 10.1369 10.2185 10.6131 10.2185C11.0892 10.2185 11.4736 9.83818 11.4736 9.36699V5.39306C11.4736 4.92187 11.0892 4.54151 10.6131 4.54151ZM4.58939 2.83864H4.01571V2.27094H4.58939V2.83864ZM6.88412 2.83864H7.4578V2.27094H6.88412V2.83864Z" fill="#AFABAB"/>
</svg>
