<svg width="14" height="13" viewBox="0 0 14 13" fill="none" xmlns="http://www.w3.org/2000/svg">
  <path fill-rule="evenodd" clip-rule="evenodd" d="M3.74026 0.0214844L0.372915 5.97523C0.127405 6.40836 0.0625074 6.91398 0.189242 7.39773C0.315977 7.88148 0.620262 8.28648 1.04516 8.53586L4.22638 10.4109C4.50557 10.5752 4.82271 10.6621 5.14353 10.6621C5.79802 10.6621 6.40781 10.3027 6.73536 9.72461L8.78577 6.09961L11.6235 4.66711L3.74026 0.0214844Z" fill="#747474"/>
  <path fill-rule="evenodd" clip-rule="evenodd" d="M11.8572 5.875C11.8572 5.875 9.71436 9.35438 9.71436 10.5625C9.71436 11.7712 10.6737 12.75 11.8572 12.75C13.0407 12.75 14.0001 11.7712 14.0001 10.5625C14.0001 9.35438 11.8572 5.875 11.8572 5.875Z" fill="#747474"/>
</svg>
