<svg width="11" height="14" viewBox="0 0 11 14" fill="none" xmlns="http://www.w3.org/2000/svg">
  <path fill-rule="evenodd" clip-rule="evenodd" d="M6.18094 0.985214C5.77686 1.4705 5.34301 2.23127 5.50015 2.99203C6.22584 3.07898 7.01156 2.63717 7.46786 2.05029C7.97638 1.50688 8.2609 0.760765 8.216 0C7.51276 0 6.69727 0.398338 6.18094 0.985214ZM10.6463 4.46091C10.6508 4.45831 10.6541 4.45644 10.6559 4.45529C9.87755 3.29619 8.6204 3.15868 8.14897 3.15821C7.50177 3.15821 6.89912 3.36429 6.40805 3.53221C6.07041 3.64767 5.78551 3.74509 5.57514 3.74509C5.34391 3.74509 5.06721 3.63168 4.75686 3.50449C4.34407 3.33532 3.87176 3.14175 3.36782 3.15821C2.21559 3.17995 1.16049 3.83912 0.569494 4.81016C0.150771 5.50571 -0.0141809 6.3246 0.000947838 7.15767C0.0233969 8.72976 0.65929 10.3671 1.40743 11.4104C1.9833 12.2076 2.63432 13.0623 3.55473 13.0623C3.94235 13.0623 4.21593 12.9455 4.50775 12.821C4.84126 12.6786 5.19858 12.526 5.77718 12.526C6.30035 12.526 6.63687 12.6699 6.96135 12.8086C7.26343 12.9377 7.55509 13.0623 7.97719 13.0623C8.8976 13.0623 9.50372 12.251 10.0498 11.4463C10.6152 10.6788 10.8728 9.94027 10.9633 9.68103C10.9829 9.62474 10.9947 9.59105 11 9.58456C10.9702 9.58456 9.23433 8.90365 9.16699 6.96204C9.16699 5.31317 10.5073 4.54099 10.6463 4.46091Z" fill="#AFABAB"/>
</svg>
