<svg width="11" height="13" viewBox="0 0 11 13" fill="none" xmlns="http://www.w3.org/2000/svg">
  <path fill-rule="evenodd" clip-rule="evenodd" d="M5.49987 0.125V1.88075C8.08667 1.88075 10.1819 3.97594 10.1819 6.56275C10.1819 7.48159 9.91265 8.33605 9.45616 9.05591L8.60169 8.20145C8.86506 7.71569 9.01137 7.15385 9.01137 6.56275C9.01137 4.62557 7.43705 3.05125 5.49987 3.05125V4.807L3.15887 2.466L5.49987 0.125ZM1.98837 6.56257C1.98837 8.49975 3.56269 10.0741 5.49987 10.0741V8.31832L7.84087 10.6593L5.49987 13.0003V11.2446C2.91306 11.2446 0.817871 9.14938 0.817871 6.56257C0.817871 5.64373 1.08709 4.78927 1.54358 4.06941L2.39805 4.92387C2.13468 5.40963 1.98837 5.97147 1.98837 6.56257Z" fill="#C4C4C4"/>
</svg>
