<svg width="14" height="13" viewBox="0 0 14 14" fill="none" xmlns="http://www.w3.org/2000/svg">
  <g clip-path="url(#clip0)">
    <path d="M2.48662 5.83317C3.00579 3.82359 4.82929 2.33317 6.99929 2.33317C9.04795 2.33317 10.7886 3.66142 11.414 5.50125L9.91595 6.99984H13.416V3.49984L12.3117 4.60409C11.3959 2.5805 9.3612 1.1665 6.99929 1.1665C4.18237 1.1665 1.8257 3.17375 1.2832 5.83317H2.48662Z" fill="#757575"/>
    <path d="M11.5123 8.16667C10.9926 10.1763 9.16909 11.6667 6.99967 11.6667C4.95101 11.6667 3.21034 10.3384 2.58501 8.49858L4.08301 7H0.583008V10.5L1.68726 9.39575C2.60309 11.4193 4.63776 12.8333 6.99967 12.8333C9.81659 12.8333 12.1733 10.8261 12.7158 8.16667H11.5123Z" fill="#757575"/>
  </g>
  <defs>
    <clipPath id="clip0">
      <rect width="14" height="14" fill="white"/>
    </clipPath>
  </defs>
</svg>
